<?xml version="1.0" encoding="utf-8"?>
<!-- Generator: Adobe Illustrator 15.1.0, SVG Export Plug-In . SVG Version: 6.00 Build 0)  -->
<!DOCTYPE svg PUBLIC "-//W3C//DTD SVG 1.1//EN" "http://www.w3.org/Graphics/SVG/1.1/DTD/svg11.dtd">
<svg version="1.1" id="Layer_1" xmlns="http://www.w3.org/2000/svg" xmlns:xlink="http://www.w3.org/1999/xlink" x="0px" y="0px"
	 width="10px" height="10px" viewBox="27 33 46 46" enable-background="new 0 0 100 100" xml:space="preserve">
<g>
	<g>
		<path fill-rule="evenodd" clip-rule="evenodd" d="M 59.9 41.6 c -0.7 0 -1.4 0.1 -2 0.2 c -2.7 -4.9 -8 -8.2 -14 -8.2 c -8.8 0 -16 7.2 -16 16 c 0 6 3.3 11.2 8.2 13.9 c 0.3 -1.3 0.9 -2.5 1.9 -3.4 l 0.1 -0.1 c -3.6 -2.1 -6.1 -6 -6.1 -10.4 c 0 -6.6 5.4 -12 12 -12 c 5.7 0 10.4 4 11.7 9.3 c 1.3 -0.8 2.7 -1.3 4.3 -1.3 c 4.4 0 8 3.6 8 8 c 0 3.4 -2.2 6.4 -5.2 7.5 c 0.8 1.1 1.2 2.5 1.2 3.8 c 4.7 -1.6 8 -6.1 8 -11.3 C 71.9 47 66.6 41.6 59.9 41.6 z M 42.9 60.9 l -2.1 2.1 c -1.2 1.2 -1.2 3.1 0 4.2 c 1.2 1.2 3.1 1.2 4.2 0 c 1.2 -1.2 1.2 -3.1 0 -4.2 L 42.9 60.9 z M 49.9 68.8 l -2.1 2.1 c -1.2 1.2 -1.2 3.1 0 4.2 c 1.2 1.2 3.1 1.2 4.2 0 c 1.2 -1.2 1.2 -3.1 0 -4.2 L 49.9 68.8 z M 56.9 60.9 l -2.1 2.1 c -1.2 1.2 -1.2 3.1 0 4.2 c 1.2 1.2 3.1 1.2 4.2 0 c 1.2 -1.2 1.2 -3.1 0 -4.2 L 56.9 60.9 z"/>
	</g>
</g>
</svg>

